<?xml version="1.0" encoding="UTF-8"?>
<svg width="40px" height="40px" viewBox="0 0 40 40" version="1.1" xmlns="http://www.w3.org/2000/svg" xmlns:xlink="http://www.w3.org/1999/xlink">
    <!-- Generator: Sketch 60.1 (88133) - https://sketch.com -->
    <title>accounting-assurance</title>
    <desc>Created with Sketch.</desc>
    <g id="Page-1" stroke="none" stroke-width="1" fill="none" fill-rule="evenodd">
        <g id="five-points-tax-service" transform="translate(-1320.000000, -714.000000)" fill="#03A1CF" fill-rule="nonzero">
            <g id="accounting-assurance" transform="translate(1320.000000, 714.000000)">
                <path d="M36.6666667,22.6666667 L28.6666667,22.6666667 C28.2984768,22.6666667 28,22.9651435 28,23.3333333 L28,31.3333333 C28,31.7015232 28.2984768,32 28.6666667,32 L36.6666667,32 C37.0348565,32 37.3333333,31.7015232 37.3333333,31.3333333 L37.3333333,23.3333333 C37.3333333,22.9651435 37.0348565,22.6666667 36.6666667,22.6666667 Z M36,25.3333333 L34.6666667,25.3333333 L34.6666667,24 L36,24 L36,25.3333333 Z M32,28 L32,26.6666667 L33.3333333,26.6666667 L33.3333333,28 L32,28 Z M33.3333333,29.3333333 L33.3333333,30.6666667 L32,30.6666667 L32,29.3333333 L33.3333333,29.3333333 Z M30.6666667,28 L29.3333333,28 L29.3333333,26.6666667 L30.6666667,26.6666667 L30.6666667,28 Z M32,25.3333333 L32,24 L33.3333333,24 L33.3333333,25.3333333 L32,25.3333333 Z M34.6666667,26.6666667 L36,26.6666667 L36,28 L34.6666667,28 L34.6666667,26.6666667 Z M30.6666667,24 L30.6666667,25.3333333 L29.3333333,25.3333333 L29.3333333,24 L30.6666667,24 Z M29.3333333,29.3333333 L30.6666667,29.3333333 L30.6666667,30.6666667 L29.3333333,30.6666667 L29.3333333,29.3333333 Z M34.6666667,30.6666667 L34.6666667,29.3333333 L36,29.3333333 L36,30.6666667 L34.6666667,30.6666667 Z" id="Shape"></path>
                <path d="M38,12 L30.6666667,12 L30.6666667,2 C30.6666667,0.8954305 29.7712362,0 28.6666667,0 L6,0 C4.8954305,0 4,0.8954305 4,2 L4,9.894 C1.57095519,10.952604 0,13.3503017 0,16 C0,18.6496983 1.57095519,21.047396 4,22.106 L4,24 L1.33333333,24 C0.596953667,24 0,24.5969537 0,25.3333333 L0,28 C0.00133321949,28.2347578 0.0653137658,28.4649037 0.185333333,28.6666667 C0.0653137658,28.8684297 0.00133321949,29.0985755 0,29.3333333 L0,32 C0.00133321949,32.2347578 0.0653137658,32.4649037 0.185333333,32.6666667 C0.0653137658,32.8684297 0.00133321949,33.0985755 0,33.3333333 L0,36 C0,36.7363797 0.596953667,37.3333333 1.33333333,37.3333333 L4,37.3333333 L4,38 C4,38.530433 4.21071368,39.0391408 4.58578644,39.4142136 C4.96085919,39.7892863 5.46956702,40 6,40 L28.6666667,40 C29.7712362,40 30.6666667,39.1045695 30.6666667,38 L30.6666667,34.6666667 L38,34.6666667 C39.1045695,34.6666667 40,33.7712362 40,32.6666667 L40,14 C40,12.8954305 39.1045695,12 38,12 L38,12 Z M25.3333333,1.33333333 L26.6666667,1.33333333 L26.6666667,3.8 L26.5546667,3.632 C26.4238901,3.45716389 26.218335,3.35422127 26,3.35422127 C25.781665,3.35422127 25.5761099,3.45716389 25.4453333,3.632 L25.3333333,3.8 L25.3333333,1.33333333 Z M1.33333333,16 C1.33333333,13.0544813 3.721148,10.6666667 6.66666667,10.6666667 C9.61218533,10.6666667 12,13.0544813 12,16 C12,18.9455187 9.61218533,21.3333333 6.66666667,21.3333333 C3.72251872,21.3300267 1.33663992,18.9441479 1.33333333,16 Z M1.33333333,25.3333333 L2.66666667,25.3333333 L2.66666667,26.6666667 L4,26.6666667 L4,25.3333333 L5.33333333,25.3333333 L5.33333333,26.6666667 L6.66666667,26.6666667 L6.66666667,25.3333333 L8,25.3333333 L8,26.6666667 L9.33333333,26.6666667 L9.33333333,25.3333333 L10.6666667,25.3333333 L10.6666667,28 L1.33333333,28 L1.33333333,25.3333333 Z M14.6666667,30.6666667 L14.6666667,29.3333333 L16,29.3333333 L16,30.6666667 L17.3333333,30.6666667 L17.3333333,29.3333333 L18.6666667,29.3333333 L18.6666667,30.6666667 L20,30.6666667 L20,29.3333333 L21.3333333,29.3333333 L21.3333333,32 L12,32 L12,29.3333333 L13.3333333,29.3333333 L13.3333333,30.6666667 L14.6666667,30.6666667 Z M1.33333333,32 L1.33333333,29.3333333 L2.66666667,29.3333333 L2.66666667,30.6666667 L4,30.6666667 L4,29.3333333 L5.33333333,29.3333333 L5.33333333,30.6666667 L6.66666667,30.6666667 L6.66666667,29.3333333 L8,29.3333333 L8,30.6666667 L9.33333333,30.6666667 L9.33333333,29.3333333 L10.6666667,29.3333333 L10.6666667,32 L1.33333333,32 Z M12,33.3333333 L13.3333333,33.3333333 L13.3333333,34.6666667 L14.6666667,34.6666667 L14.6666667,33.3333333 L16,33.3333333 L16,34.6666667 L17.3333333,34.6666667 L17.3333333,33.3333333 L18.6666667,33.3333333 L18.6666667,34.6666667 L20,34.6666667 L20,33.3333333 L21.3333333,33.3333333 L21.3333333,36 L12,36 L12,33.3333333 Z M1.33333333,33.3333333 L2.66666667,33.3333333 L2.66666667,34.6666667 L4,34.6666667 L4,33.3333333 L5.33333333,33.3333333 L5.33333333,34.6666667 L6.66666667,34.6666667 L6.66666667,33.3333333 L8,33.3333333 L8,34.6666667 L9.33333333,34.6666667 L9.33333333,33.3333333 L10.6666667,33.3333333 L10.6666667,36 L1.33333333,36 L1.33333333,33.3333333 Z M29.3333333,38 C29.3333333,38.3681898 29.0348565,38.6666667 28.6666667,38.6666667 L6,38.6666667 C5.63181017,38.6666667 5.33333333,38.3681898 5.33333333,38 L5.33333333,37.3333333 L10.6666667,37.3333333 C10.9014245,37.3320001 11.1315703,37.2680196 11.3333333,37.148 C11.5350963,37.2680196 11.7652422,37.3320001 12,37.3333333 L21.3333333,37.3333333 C22.069713,37.3333333 22.6666667,36.7363797 22.6666667,36 L22.6666667,33.3333333 C22.6653334,33.0985755 22.6013529,32.8684297 22.4813333,32.6666667 C22.6013529,32.4649037 22.6653334,32.2347578 22.6666667,32 L22.6666667,29.3333333 C22.6666667,28.5969537 22.069713,28 21.3333333,28 L12,28 L12,25.3333333 C12,24.5969537 11.4030463,24 10.6666667,24 L5.33333333,24 L5.33333333,22.5333333 C7.98213977,23.0711964 10.6935741,21.9565142 12.1981889,19.711162 C13.7028036,17.4658097 13.7028036,14.5341903 12.1981889,12.288838 C10.6935741,10.0434858 7.98213977,8.92880358 5.33333333,9.46666667 L5.33333333,2 C5.33333333,1.63181017 5.63181017,1.33333333 6,1.33333333 L24,1.33333333 L24,6 C23.9999341,6.29379462 24.1922016,6.5529992 24.4733767,6.63818052 C24.7545518,6.72336183 25.0583432,6.61443714 25.2213333,6.37 L26,5.2 L26.7786667,6.368 C26.9414508,6.61213195 27.2447181,6.72112674 27.5256682,6.63647366 C27.8066183,6.55182057 27.9991872,6.29342535 28,6 L28,1.33333333 L28.6666667,1.33333333 C29.0348565,1.33333333 29.3333333,1.63181017 29.3333333,2 L29.3333333,12 L27.3333333,12 C26.2287638,12 25.3333333,12.8954305 25.3333333,14 L25.3333333,32.6666667 C25.3333333,33.7712362 26.2287638,34.6666667 27.3333333,34.6666667 L29.3333333,34.6666667 L29.3333333,38 Z M38.6666667,32.6666667 C38.6666667,33.0348565 38.3681898,33.3333333 38,33.3333333 L27.3333333,33.3333333 C26.9651435,33.3333333 26.6666667,33.0348565 26.6666667,32.6666667 L26.6666667,14 C26.6666667,13.6318102 26.9651435,13.3333333 27.3333333,13.3333333 L38,13.3333333 C38.3681898,13.3333333 38.6666667,13.6318102 38.6666667,14 L38.6666667,32.6666667 Z" id="Shape"></path>
                <path d="M36.6666667,14.6666667 L28.6666667,14.6666667 C28.2984768,14.6666667 28,14.9651435 28,15.3333333 L28,20.6666667 C28,21.0348565 28.2984768,21.3333333 28.6666667,21.3333333 L36.6666667,21.3333333 C37.0348565,21.3333333 37.3333333,21.0348565 37.3333333,20.6666667 L37.3333333,15.3333333 C37.3333333,14.9651435 37.0348565,14.6666667 36.6666667,14.6666667 Z M36,20 L29.3333333,20 L29.3333333,16 L36,16 L36,20 Z" id="Shape"></path>
                <polygon id="Path" points="30.6666667 17.3333333 32 17.3333333 32 18.6666667 30.6666667 18.6666667"></polygon>
                <polygon id="Path" points="33.3333333 17.3333333 34.6666667 17.3333333 34.6666667 18.6666667 33.3333333 18.6666667"></polygon>
                <path d="M7.33333333,20 L7.33333333,19.3333333 C8.43790283,19.3333333 9.33333333,18.4379028 9.33333333,17.3333333 C9.33333333,16.2287638 8.43790283,15.3333333 7.33333333,15.3333333 L6,15.3333333 C5.63181017,15.3333333 5.33333333,15.0348565 5.33333333,14.6666667 C5.33333333,14.2984768 5.63181017,14 6,14 L7.33333333,14 C7.70152317,14 8,14.2984768 8,14.6666667 L9.33333333,14.6666667 C9.33333333,13.5620972 8.43790283,12.6666667 7.33333333,12.6666667 L7.33333333,12 L6,12 L6,12.6666667 C4.89543052,12.6666667 4,13.5620972 4,14.6666667 C4,15.7712361 4.89543052,16.6666666 6,16.6666667 L7.33333333,16.6666667 C7.70152317,16.6666667 8,16.9651435 8,17.3333333 C8,17.7015232 7.70152317,18 7.33333333,18 L6,18 C5.63181017,18 5.33333333,17.7015232 5.33333333,17.3333333 L4,17.3333333 C4,18.4379028 4.8954305,19.3333333 6,19.3333333 L6,20 L7.33333333,20 Z" id="Path"></path>
                <polygon id="Path" points="8 4 9.33333333 4 9.33333333 5.33333333 8 5.33333333"></polygon>
                <polygon id="Path" points="10.6666667 4 14.6666667 4 14.6666667 5.33333333 10.6666667 5.33333333"></polygon>
                <polygon id="Path" points="8 6.66666667 14.6666667 6.66666667 14.6666667 8 8 8"></polygon>
                <polygon id="Path" points="14.6666667 11.3333333 24 11.3333333 24 12.6666667 14.6666667 12.6666667"></polygon>
                <polygon id="Path" points="14.6666667 14 24 14 24 15.3333333 14.6666667 15.3333333"></polygon>
                <polygon id="Path" points="14.6666667 16.6666667 24 16.6666667 24 18 14.6666667 18"></polygon>
                <polygon id="Path" points="14.6666667 19.3333333 24 19.3333333 24 20.6666667 14.6666667 20.6666667"></polygon>
                <polygon id="Path" points="14.6666667 22 24 22 24 23.3333333 14.6666667 23.3333333"></polygon>
            </g>
        </g>
    </g>
</svg>