<?xml version="1.0" encoding="UTF-8"?>
<svg width="40px" height="40px" viewBox="0 0 40 40" version="1.1" xmlns="http://www.w3.org/2000/svg" xmlns:xlink="http://www.w3.org/1999/xlink">
    <!-- Generator: Sketch 60.1 (88133) - https://sketch.com -->
    <title>business-consulting</title>
    <desc>Created with Sketch.</desc>
    <g id="Page-1" stroke="none" stroke-width="1" fill="none" fill-rule="evenodd">
        <g id="five-points-tax-service" transform="translate(-940.000000, -714.000000)" fill="#03A1CF" fill-rule="nonzero">
            <g id="business-consulting" transform="translate(940.000000, 714.000000)">
                <path d="M10.501002,21.9354839 C11.2083367,21.9354839 11.7835671,22.5141935 11.7835671,23.2258065 L13.0661323,23.2258065 C13.0661323,22.0264516 12.2452906,21.0251613 11.1422846,20.7367742 L11.1422846,19.3548387 L9.85971944,19.3548387 L9.85971944,20.7367742 C8.75671343,21.0251613 7.93587174,22.0264516 7.93587174,23.2258065 C7.93587174,24.6490323 9.08633267,25.8064516 10.501002,25.8064516 C11.2083367,25.8064516 11.7835671,26.3851613 11.7835671,27.0967742 C11.7835671,27.8083871 11.2083367,28.3870968 10.501002,28.3870968 C9.79366733,28.3870968 9.21843687,27.8083871 9.21843687,27.0967742 L7.93587174,27.0967742 C7.93587174,28.296129 8.75671343,29.2974194 9.85971944,29.5858065 L9.85971944,30.9677419 L11.1422846,30.9677419 L11.1422846,29.5858065 C12.2452906,29.2974194 13.0661323,28.296129 13.0661323,27.0967742 C13.0661323,25.6735484 11.9156713,24.516129 10.501002,24.516129 C9.79366733,24.516129 9.21843687,23.9374194 9.21843687,23.2258065 C9.21843687,22.5141935 9.79366733,21.9354839 10.501002,21.9354839 Z" id="Path"></path>
                <path d="M36.7935872,0 L9.85971944,0 C8.09170341,0 6.65330661,1.44709677 6.65330661,3.22580645 L6.65330661,17.7283871 C3.98941884,19.1296774 2.16432866,21.9329032 2.16432866,25.1612903 C2.16432866,28.8064516 4.49218437,31.9077419 7.72809619,33.0612903 L4.33955912,33.7432258 C2.68376754,34.076129 1.36721443,35.2974194 0.903567134,36.9309677 L0.0314228457,40 L20.9699399,40 L20.0984369,36.9309677 C19.6347896,35.2974194 18.3182365,34.0754839 16.6630862,33.7432258 L13.2739078,33.0612903 C15.4953106,32.2696774 17.2896192,30.5632258 18.1944689,28.3870968 L36.7935872,28.3870968 C38.5616032,28.3870968 40,26.94 40,25.1612903 L40,3.22580645 C40,1.44709677 38.5616032,0 36.7935872,0 Z M11.7835671,33.5483871 C11.7835671,34.26 11.2083367,34.8387097 10.501002,34.8387097 C9.79366733,34.8387097 9.21843687,34.26 9.21843687,33.5483871 L9.21843687,33.4387097 C9.63783567,33.5045161 10.0636473,33.5483871 10.501002,33.5483871 C10.9383567,33.5483871 11.3641683,33.503871 11.7835671,33.4387097 L11.7835671,33.5483871 Z M18.8652505,37.2851613 L19.2698998,38.7096774 L16.1314629,38.7096774 L15.6113828,36.6180645 L14.3672946,36.9303226 L14.8097796,38.7096774 L6.19222445,38.7096774 L6.63406814,36.9303226 L5.38997996,36.6180645 L4.8698998,38.7096774 L1.73210421,38.7096774 L2.13675351,37.2851613 C2.46829659,36.1180645 3.40841683,35.2464516 4.59094188,35.0083871 L8.05066132,34.3122581 C8.3751503,35.3632258 9.35118236,36.1290323 10.501002,36.1290323 C11.6508216,36.1290323 12.6268537,35.3632258 12.9513427,34.3122581 L16.4117034,35.0083871 C17.5942285,35.2464516 18.5343487,36.1180645 18.8652505,37.2851613 L18.8652505,37.2851613 Z M10.501002,32.2580645 C6.61162325,32.2580645 3.44689379,29.0741935 3.44689379,25.1612903 C3.44689379,21.2483871 6.61162325,18.0645161 10.501002,18.0645161 C14.3903808,18.0645161 17.5551102,21.2483871 17.5551102,25.1612903 C17.5551102,29.0741935 14.3903808,32.2580645 10.501002,32.2580645 Z M38.7174349,25.1612903 C38.7174349,26.2283871 37.8542685,27.0967742 36.7935872,27.0967742 L18.6048898,27.0967742 C18.7517435,26.4741935 18.8376754,25.8283871 18.8376754,25.1612903 C18.8376754,20.5367742 15.0977154,16.7741935 10.501002,16.7741935 C9.60577154,16.7741935 8.74452906,16.9206452 7.93587174,17.1845161 L7.93587174,3.22580645 C7.93587174,2.15870968 8.79903808,1.29032258 9.85971944,1.29032258 L36.7935872,1.29032258 C37.8542685,1.29032258 38.7174349,2.15870968 38.7174349,3.22580645 L38.7174349,25.1612903 Z" id="Shape"></path>
                <path d="M36.1523046,11.6129032 L32.3046092,11.6129032 L32.3046092,24.516129 L31.0220441,24.516129 L31.0220441,14.1935484 L27.1743487,14.1935484 L27.1743487,24.516129 L25.8917836,24.516129 L25.8917836,16.7741935 L22.0440882,16.7741935 L22.0440882,24.516129 L20.761523,24.516129 L20.761523,25.8064516 L37.4348697,25.8064516 L37.4348697,24.516129 L36.1523046,24.516129 L36.1523046,11.6129032 Z M33.5871743,12.9032258 L34.8697395,12.9032258 L34.8697395,24.516129 L33.5871743,24.516129 L33.5871743,12.9032258 Z M28.4569138,15.483871 L29.739479,15.483871 L29.739479,24.516129 L28.4569138,24.516129 L28.4569138,15.483871 Z M23.3266533,18.0645161 L24.6092184,18.0645161 L24.6092184,24.516129 L23.3266533,24.516129 L23.3266533,18.0645161 Z" id="Shape"></path>
                <polygon id="Path" points="11.7835671 2.58064516 17.5551102 2.58064516 17.5551102 3.87096774 11.7835671 3.87096774"></polygon>
                <polygon id="Path" points="11.7835671 5.16129032 17.5551102 5.16129032 17.5551102 6.4516129 11.7835671 6.4516129"></polygon>
                <polygon id="Path" points="11.7835671 7.74193548 17.5551102 7.74193548 17.5551102 9.03225806 11.7835671 9.03225806"></polygon>
                <polygon id="Path" points="11.7835671 10.3225806 17.5551102 10.3225806 17.5551102 11.6129032 11.7835671 11.6129032"></polygon>
                <polygon id="Path" points="14.98998 24.516129 16.2725451 24.516129 16.2725451 25.8064516 14.98998 25.8064516"></polygon>
                <polygon id="Path" points="4.72945892 24.516129 6.01202405 24.516129 6.01202405 25.8064516 4.72945892 25.8064516"></polygon>
                <polygon id="Path" points="9.21843687 2.58064516 10.501002 2.58064516 10.501002 3.87096774 9.21843687 3.87096774"></polygon>
                <polygon id="Path" points="9.21843687 5.16129032 10.501002 5.16129032 10.501002 6.4516129 9.21843687 6.4516129"></polygon>
                <polygon id="Path" points="9.21843687 7.74193548 10.501002 7.74193548 10.501002 9.03225806 9.21843687 9.03225806"></polygon>
                <polygon id="Path" points="9.21843687 10.3225806 10.501002 10.3225806 10.501002 11.6129032 9.21843687 11.6129032"></polygon>
                <path d="M35.511022,2.58064516 C34.4503407,2.58064516 33.5871743,3.44903226 33.5871743,4.51612903 C33.5871743,4.71677419 33.6262926,4.90645161 33.6827255,5.08903226 L31.4452906,6.77741935 C31.1406814,6.57225806 30.774509,6.4516129 30.3807615,6.4516129 C29.9491784,6.4516129 29.5547896,6.6 29.2341483,6.84258065 L28.3927856,6.27806452 C28.4306212,6.12645161 28.4569138,5.97032258 28.4569138,5.80645161 C28.4569138,4.73935484 27.5937475,3.87096774 26.5330661,3.87096774 C25.4723848,3.87096774 24.6092184,4.73935484 24.6092184,5.80645161 C24.6092184,6.10451613 24.6816834,6.38322581 24.8022445,6.63548387 L23.5100601,7.93548387 C23.2586774,7.81483871 22.9816433,7.74193548 22.6853707,7.74193548 C21.6246894,7.74193548 20.761523,8.61032258 20.761523,9.67741935 C20.761523,10.7445161 21.6246894,11.6129032 22.6853707,11.6129032 C23.7460521,11.6129032 24.6092184,10.7445161 24.6092184,9.67741935 C24.6092184,9.37935484 24.5367535,9.10064516 24.4161924,8.8483871 L25.7083768,7.5483871 C25.9597595,7.66903226 26.2367936,7.74193548 26.5330661,7.74193548 C26.9646493,7.74193548 27.3590381,7.59290323 27.6803206,7.35096774 L28.5216834,7.91548387 C28.4832064,8.06709677 28.4569138,8.22322581 28.4569138,8.38709677 C28.4569138,9.45419355 29.3200802,10.3225806 30.3807615,10.3225806 C31.4414429,10.3225806 32.3046092,9.45419355 32.3046092,8.38709677 C32.3046092,8.18645161 32.265491,7.99612903 32.2090581,7.81419355 L34.4458517,6.12645161 C34.7511022,6.33096774 35.1172745,6.4516129 35.511022,6.4516129 C36.5717034,6.4516129 37.4348697,5.58322581 37.4348697,4.51612903 C37.4348697,3.44903226 36.5717034,2.58064516 35.511022,2.58064516 L35.511022,2.58064516 Z M22.6853707,10.3225806 C22.332024,10.3225806 22.0440882,10.0335484 22.0440882,9.67741935 C22.0440882,9.32129032 22.332024,9.03225806 22.6853707,9.03225806 C23.0387174,9.03225806 23.3266533,9.32129032 23.3266533,9.67741935 C23.3266533,10.0335484 23.0387174,10.3225806 22.6853707,10.3225806 Z M26.5330661,6.4516129 C26.1797194,6.4516129 25.8917836,6.16258065 25.8917836,5.80645161 C25.8917836,5.45032258 26.1797194,5.16129032 26.5330661,5.16129032 C26.8864128,5.16129032 27.1743487,5.45032258 27.1743487,5.80645161 C27.1743487,6.16258065 26.8864128,6.4516129 26.5330661,6.4516129 Z M30.3807615,9.03225806 C30.0274148,9.03225806 29.739479,8.74322581 29.739479,8.38709677 C29.739479,8.03096774 30.0274148,7.74193548 30.3807615,7.74193548 C30.7341082,7.74193548 31.0220441,8.03096774 31.0220441,8.38709677 C31.0220441,8.74322581 30.7341082,9.03225806 30.3807615,9.03225806 Z M35.511022,5.16129032 C35.1576754,5.16129032 34.8697395,4.87225806 34.8697395,4.51612903 C34.8697395,4.16 35.1576754,3.87096774 35.511022,3.87096774 C35.8643687,3.87096774 36.1523046,4.16 36.1523046,4.51612903 C36.1523046,4.87225806 35.8643687,5.16129032 35.511022,5.16129032 Z" id="Shape"></path>
            </g>
        </g>
    </g>
</svg>