<?xml version="1.0" encoding="UTF-8"?>
<svg width="30px" height="30px" viewBox="0 0 30 30" version="1.1" xmlns="http://www.w3.org/2000/svg" xmlns:xlink="http://www.w3.org/1999/xlink">
    <!-- Generator: Sketch 60.1 (88133) - https://sketch.com -->
    <title>download</title>
    <desc>Created with Sketch.</desc>
    <g id="Page-1" stroke="none" stroke-width="1" fill="none" fill-rule="evenodd">
        <g id="five-points-tax-document" transform="translate(-405.000000, -656.000000)" fill="#5EC3E0" fill-rule="nonzero">
            <g id="download" transform="translate(405.000000, 656.000000)">
                <path d="M29.0601818,20.6234026 C28.5427013,20.6234026 28.1227792,21.0434026 28.1227792,21.5608052 L28.1227792,28.1227792 L1.87488312,28.1227792 L1.87488312,21.5608052 C1.87488312,21.0433247 1.45488312,20.6234026 0.937480519,20.6234026 C0.420077922,20.6234026 0,21.0433247 0,21.5608052 L0,29.0601818 C0,29.5776623 0.42,29.9975844 0.937402597,29.9975844 L29.0601818,29.9975844 C29.5776623,29.9975844 29.9975844,29.5775844 29.9975844,29.0601818 L29.9975844,21.5608052 C29.9975844,21.0433247 29.5776623,20.6234026 29.0601818,20.6234026 Z" id="Path"></path>
                <path d="M14.3145195,22.2235325 C14.6791948,22.5844675 15.2894805,22.5882078 15.6540779,22.2235325 L22.2151169,15.7552987 C22.5854026,15.3887532 22.5844675,14.7953766 22.2151169,14.4297662 C21.8457662,14.0632208 21.2458442,14.0632208 20.8764935,14.4297662 L15.9315584,19.3044156 L15.9315584,0.937402597 C15.9315584,0.419922078 15.5078182,0 14.9847273,0 C14.4616364,0 14.0378961,0.42 14.0378961,0.937402597 L14.0378961,19.3044156 L9.09296104,14.4297662 C8.72267532,14.0632208 8.12368831,14.0632208 7.75433766,14.4297662 C7.38405195,14.7963117 7.38405195,15.3896883 7.75433766,15.7552987 L14.3145195,22.2235325 Z" id="Path"></path>
            </g>
        </g>
    </g>
</svg>