<?xml version="1.0" encoding="UTF-8"?>
<svg width="36px" height="40px" viewBox="0 0 36 40" version="1.1" xmlns="http://www.w3.org/2000/svg" xmlns:xlink="http://www.w3.org/1999/xlink">
    <!-- Generator: Sketch 60.1 (88133) - https://sketch.com -->
    <title>estate-family</title>
    <desc>Created with Sketch.</desc>
    <g id="Page-1" stroke="none" stroke-width="1" fill="none" fill-rule="evenodd">
        <g id="five-points-tax-service" transform="translate(-1322.000000, -888.000000)" fill="#03A1CF" fill-rule="nonzero">
            <g id="estate-family" transform="translate(1322.000000, 888.000000)">
                <path d="M18.1038679,21.817687 C18.0299052,21.8016778 17.9540215,21.7987961 17.8790984,21.8100025 C17.1282659,21.7225922 16.5618597,21.0873463 16.5605789,20.3317111 C16.5605789,19.9695825 16.2669698,19.6759734 15.9048411,19.6759734 C15.5427126,19.6759734 15.2491034,19.9695825 15.2491034,20.3317111 C15.2510246,21.5935579 16.0950307,22.6988345 17.3117316,23.0327869 L17.3117316,23.6885246 C17.3117316,24.0506532 17.6053407,24.3442623 17.9674693,24.3442623 C18.3295979,24.3442623 18.623207,24.0506532 18.623207,23.6885246 L18.623207,23.0724898 C20.0275359,22.7785605 20.9820057,21.470607 20.8344007,20.0435451 C20.6864754,18.6164831 19.4841829,17.5320184 18.0494365,17.5316983 C17.2272029,17.5316983 16.5605789,16.8650743 16.5605789,16.0428407 C16.5605789,15.220607 17.2272029,14.5539831 18.0494365,14.5539831 C18.8716701,14.5539831 19.5382941,15.220607 19.5382941,16.0428407 C19.5382941,16.4049693 19.8319032,16.6985784 20.1940318,16.6985784 C20.5561603,16.6985784 20.8497695,16.4049693 20.8497695,16.0428407 C20.8478484,14.7179175 19.9196337,13.5751793 18.623207,13.3017418 L18.623207,12.704918 C18.623207,12.3427894 18.3295979,12.0491803 17.9674693,12.0491803 C17.6053407,12.0491803 17.3117316,12.3427894 17.3117316,12.704918 L17.3117316,13.3417648 C15.9586321,13.7112577 15.0877305,15.0249744 15.2740779,16.4152152 C15.4604252,17.8054559 16.6467085,18.8431737 18.0494365,18.8428534 C18.8607838,18.8428534 19.522605,19.4925077 19.5373335,20.3035348 C19.5523821,21.114562 18.9145748,21.78823 18.1038679,21.817687 L18.1038679,21.817687 Z" id="Path"></path>
                <path d="M8.54059934,18.2377049 C8.54059934,23.4893698 12.7977715,27.746542 18.0494365,27.746542 C23.3011015,27.746542 27.5582736,23.4893698 27.5582736,18.2377049 C27.5582736,12.98604 23.3011015,8.72886787 18.0494365,8.72886787 C12.800333,8.73463115 8.54668287,12.9886015 8.54059934,18.2377049 Z M18.0494365,10.0403433 C22.5768443,10.0403433 26.2467982,13.7102971 26.2467982,18.2377049 C26.2467982,22.7651127 22.5768443,26.4350666 18.0494365,26.4350666 C13.5220287,26.4350666 9.85207475,22.7651127 9.85207475,18.2377049 C9.8571977,13.7125384 13.52427,10.0454662 18.0494365,10.0403433 Z" id="Shape"></path>
                <path d="M30.7908556,29.3631532 L25.6541368,31.7901511 C24.9449283,30.4709913 23.5844647,29.6314677 22.0872823,29.5892034 L17.3453509,29.4588884 C16.5945184,29.437436 15.8577741,29.2472464 15.1901895,28.9024078 L14.7076716,28.6523438 C12.2371286,27.364562 9.29239246,27.3677639 6.82441082,28.6606685 L6.8545082,27.5675589 C6.86443393,27.2054303 6.57914959,26.9038166 6.21702098,26.8938909 L1.0172259,26.7507684 C0.655097377,26.7408427 0.35380377,27.026127 0.343878033,27.3882557 L0.0295257909,38.7989882 C0.0198514754,39.1611168 0.305135738,39.4627305 0.667264344,39.4726562 L5.86705943,39.6157787 L5.88498975,39.6157787 C6.24039443,39.6157787 6.53112197,39.3330558 6.54072746,38.9779713 L6.55577615,38.4320569 L7.90663426,37.7087602 C8.43685967,37.4234759 9.05673672,37.3555968 9.63595033,37.5195312 L17.7026767,39.7835553 C17.7167648,39.7877177 17.730853,39.7909196 17.7452613,39.7941214 C18.3283171,39.9161116 18.9225794,39.9772669 19.5181225,39.976948 C20.7796491,39.977587 22.0264472,39.7057505 23.1730277,39.1793673 C23.2012039,39.1665599 23.2284196,39.1515113 23.2543545,39.1345415 L34.9503714,31.5692239 C35.2417393,31.3806352 35.3358734,30.9980148 35.1652152,30.6957607 C34.296875,29.1550333 32.3709657,28.5681352 30.7908556,29.3631532 L30.7908556,29.3631532 Z M1.3588627,38.1797516 L1.63678279,28.079854 L5.52542262,28.1867956 L5.24750254,38.2870133 L1.3588627,38.1797516 Z M22.5822874,38.0081327 C21.1577869,38.651063 19.5667905,38.8284452 18.0356685,38.515625 L9.99071467,36.2573643 C9.08523311,36.0015369 8.11603484,36.107518 7.2877177,36.5528944 L6.59740008,36.9227075 L6.78214656,30.2074795 C8.96964656,28.7525615 11.7751025,28.6030353 14.1047643,29.8168545 L14.5872823,30.0669185 C15.430648,30.5023693 16.3607838,30.7425077 17.3094902,30.7700435 L22.0517418,30.9003586 C23.383709,30.9387807 24.5149206,31.887167 24.7851562,33.1922387 L17.7215676,32.9972464 C17.359439,32.9873207 17.0581455,33.2729252 17.0478996,33.6347336 C17.0379739,33.9968622 17.3235784,34.2984759 17.6853868,34.3084016 L25.4805968,34.5229252 L25.4988474,34.5229252 C25.8539319,34.522605 26.1443392,34.2398821 26.1539447,33.8851179 C26.1619493,33.6001537 26.1408171,33.3148693 26.0905482,33.0343878 L31.3591829,30.5449539 C31.3643058,30.5427126 31.3694288,30.5401511 31.3745517,30.5375897 C32.1218622,30.1594518 33.0254226,30.2859247 33.6401767,30.8548925 L22.5822874,38.0081327 Z" id="Shape"></path>
                <path d="M18.7051742,6.8852459 L18.7051742,0.655737705 C18.7051742,0.293609098 18.4115651,0 18.0494365,0 C17.6873079,0 17.3936988,0.293609098 17.3936988,0.655737705 L17.3936988,6.8852459 C17.3936988,7.24737451 17.6873079,7.54098361 18.0494365,7.54098361 C18.4115651,7.54098361 18.7051742,7.24737451 18.7051742,6.8852459 Z" id="Path"></path>
                <path d="M23.623207,6.8852459 L23.623207,3.93442623 C23.623207,3.57229762 23.3295979,3.27868852 22.9674693,3.27868852 C22.6053407,3.27868852 22.3117316,3.57229762 22.3117316,3.93442623 L22.3117316,6.8852459 C22.3117316,7.24737451 22.6053407,7.54098361 22.9674693,7.54098361 C23.3295979,7.54098361 23.623207,7.24737451 23.623207,6.8852459 Z" id="Path"></path>
                <path d="M13.7871414,6.8852459 L13.7871414,3.93442623 C13.7871414,3.57229762 13.4935323,3.27868852 13.1314037,3.27868852 C12.7692751,3.27868852 12.475666,3.57229762 12.475666,3.93442623 L12.475666,6.8852459 C12.475666,7.24737451 12.7692751,7.54098361 13.1314037,7.54098361 C13.4935323,7.54098361 13.7871414,7.24737451 13.7871414,6.8852459 Z" id="Path"></path>
            </g>
        </g>
    </g>
</svg>