<?xml version="1.0" encoding="UTF-8"?>
<svg width="25px" height="25px" viewBox="0 0 25 25" version="1.1" xmlns="http://www.w3.org/2000/svg" xmlns:xlink="http://www.w3.org/1999/xlink">
    <!-- Generator: Sketch 60.1 (88133) - https://sketch.com -->
    <title>location</title>
    <desc>Created with Sketch.</desc>
    <g id="Page-1" stroke="none" stroke-width="1" fill="none" fill-rule="evenodd">
        <g id="five-points-tax-home" transform="translate(-418.000000, -2526.000000)" fill="#FFFFFF" fill-rule="nonzero">
            <g id="Group-13" transform="translate(405.000000, 2342.000000)">
                <g id="location" transform="translate(13.000000, 184.000000)">
                    <path d="M6.9703125,21.3442383 C8.45712891,21.7642578 10.4209473,21.9956055 12.5,21.9956055 C14.5790527,21.9956055 16.5428711,21.7643066 18.0296875,21.3442383 C19.8486816,20.8304199 20.7709961,20.0865723 20.7709961,19.1335449 C20.7709961,18.1804688 19.8486816,17.4367188 18.0296875,16.9229004 C17.1984863,16.6880859 16.2177734,16.5125977 15.1515625,16.4031738 C17.239502,12.8394043 19.3085938,8.80419922 19.3085938,6.80854492 C19.3085938,3.05429687 16.2542969,0 12.5,0 C8.74570313,0 5.69140625,3.05429687 5.69140625,6.80854492 C5.69140625,8.80415039 7.76044922,12.8392578 9.84838867,16.4030273 C8.78217773,16.5124512 7.80161133,16.6880371 6.97036133,16.9229004 C5.15136719,17.4367188 4.22905273,18.1805176 4.22905273,19.1335449 C4.22905273,20.0865723 5.15131836,20.8303711 6.9703125,21.3442383 Z M12.5,1.46484375 C15.446582,1.46484375 17.84375,3.86201172 17.84375,6.80854492 C17.84375,8.32202148 15.9710938,12.2894043 12.8344727,17.4213379 C12.7308594,17.5908691 12.5660156,17.6091309 12.4999512,17.6091309 C12.4339355,17.6091309 12.269043,17.5908691 12.1654297,17.4213379 C9.02880859,12.2894043 7.15615234,8.32207031 7.15615234,6.80854492 C7.15615234,3.86201172 9.55341797,1.46484375 12.5,1.46484375 Z M7.63452148,18.2611328 C8.5078125,18.0387207 9.55415039,17.8826172 10.6820312,17.801416 C10.7603027,17.9305176 10.8381836,18.0585449 10.9155762,18.1851562 C11.2557129,18.7416992 11.847998,19.073877 12.4999512,19.073877 C13.1519531,19.073877 13.7441895,18.7416504 14.0843262,18.1851562 C14.1617187,18.0584961 14.2396484,17.9304687 14.3179199,17.8013672 C15.4458008,17.8825684 16.4920898,18.0387207 17.3654297,18.2611328 C18.7041016,18.6020996 19.1931641,18.9859375 19.2937012,19.1334961 C19.1931152,19.2811035 18.7041504,19.6649414 17.3654785,20.0058594 C16.0367187,20.3443359 14.3087402,20.5307129 12.4999512,20.5307129 C10.6911621,20.5307129 8.96318359,20.3443359 7.63447266,20.0058594 C6.29580078,19.6649414 5.80678711,19.2810547 5.70625,19.1334961 C5.80683594,18.9859375 6.29584961,18.6021484 7.63452148,18.2611328 Z" id="Shape"></path>
                    <path d="M22.867627,17.5279297 C22.5129883,17.3331543 22.0677246,17.4626953 21.8730469,17.8171875 C21.6782715,18.1717285 21.8077637,18.617041 22.1623047,18.8117676 C23.0347656,19.2910645 23.5351562,19.8224121 23.5351562,20.2695801 C23.5351562,20.8165039 22.7602539,21.6641602 20.5853027,22.4030762 C18.4366211,23.1331543 15.5651855,23.5351562 12.5,23.5351562 C9.43481445,23.5351562 6.56337891,23.1331543 4.41469727,22.4030762 C2.23974609,21.664209 1.46484375,20.8165039 1.46484375,20.2695801 C1.46484375,19.8224121 1.96523437,19.2910645 2.83769531,18.8117188 C3.19223633,18.6169922 3.32172852,18.1716797 3.12695313,17.8171387 C2.93217773,17.4626465 2.48701172,17.3331055 2.13237305,17.5278809 C1.15961914,18.0623047 0,18.9717773 0,20.2695801 C0,21.2644043 0.684179688,22.6827637 3.94345703,23.7900879 C6.23994141,24.5703125 9.27871094,25 12.5,25 C15.7212891,25 18.7600586,24.5703125 21.056543,23.7900879 C24.3158203,22.6827637 25,21.2644043 25,20.2695801 C25,18.9717773 23.8403809,18.0623047 22.867627,17.5279297 Z" id="Path"></path>
                    <path d="M15.2366699,6.34106445 C15.2366699,4.83212891 14.0089844,3.60449219 12.5,3.60449219 C10.9910156,3.60449219 9.76333008,4.83212891 9.76333008,6.34106445 C9.76333008,7.85004883 10.9910156,9.07768555 12.5,9.07768555 C14.0089844,9.07768555 15.2366699,7.85009766 15.2366699,6.34106445 Z M11.2281738,6.34106445 C11.2281738,5.63984375 11.7987305,5.06933594 12.5,5.06933594 C13.2012695,5.06933594 13.7718262,5.63984375 13.7718262,6.34106445 C13.7718262,7.04228516 13.2012695,7.6128418 12.5,7.6128418 C11.7987305,7.6128418 11.2281738,7.04233398 11.2281738,6.34106445 Z" id="Shape"></path>
                </g>
            </g>
        </g>
    </g>
</svg>