<?xml version="1.0" encoding="UTF-8"?>
<svg width="25px" height="19px" viewBox="0 0 25 19" version="1.1" xmlns="http://www.w3.org/2000/svg" xmlns:xlink="http://www.w3.org/1999/xlink">
    <!-- Generator: Sketch 60.1 (88133) - https://sketch.com -->
    <title>envelope</title>
    <desc>Created with Sketch.</desc>
    <g id="Page-1" stroke="none" stroke-width="1" fill="none" fill-rule="evenodd">
        <g id="five-points-tax-home" transform="translate(-418.000000, -2689.000000)" fill="#FFFFFF" fill-rule="nonzero">
            <g id="Group-13" transform="translate(405.000000, 2342.000000)">
                <g id="envelope" transform="translate(13.000000, 347.000000)">
                    <path d="M22.9166504,0 L2.08334961,0 C0.934326172,0 0,0.946783854 0,2.1111276 L0,16.8889219 C0,18.0532161 0.934326172,19 2.08334961,19 L22.9166992,19 C24.0656738,19 25,18.0532161 25,16.8888724 L25,2.1111276 C25,0.946783854 24.0656738,0 22.9166504,0 Z M2.08334961,1.05553906 L22.9166992,1.05553906 C22.993457,1.05553906 23.061084,1.08389062 23.1331055,1.09992188 C21.3294434,2.77266406 15.3487793,8.31690365 13.2558594,10.2277396 C13.0920898,10.3772161 12.828125,10.5555391 12.5000488,10.5555391 C12.1719727,10.5555391 11.9080078,10.3772161 11.7437012,10.2272448 C9.65097656,8.31670573 3.6699707,2.77216927 1.86660156,1.10002083 C1.93876953,1.08398958 2.00654297,1.05553906 2.08334961,1.05553906 Z M1.04165039,16.8888724 L1.04165039,2.1111276 C1.04165039,2.00771615 1.07241211,1.91390365 1.09995117,1.81939844 C2.48041992,3.09972135 6.6534668,6.96820052 9.35932617,9.46160417 C6.66225586,11.8092422 2.48813477,15.8194297 1.09667969,17.1639766 C1.07211914,17.0742214 1.04165039,16.9864453 1.04165039,16.8888724 Z M22.9166504,17.9444609 L2.08334961,17.9444609 C2.00014648,17.9444609 1.92617188,17.9150703 1.84848633,17.8962682 C3.28632813,16.5072891 7.48701172,12.4740443 10.1366699,10.1770729 C10.4820801,10.4945807 10.7976074,10.7840833 11.0463379,11.0111927 C11.4756348,11.4039583 11.978125,11.6111276 12.5,11.6111276 C13.021875,11.6111276 13.5243652,11.4039089 13.953125,11.0116875 C14.2019531,10.7844792 14.5177246,10.4947292 14.8633301,10.1770729 C17.5131348,12.4737969 21.7132324,16.5067448 23.1515137,17.8962682 C23.0738281,17.9150703 22.9999512,17.9444609 22.9166504,17.9444609 Z M23.9583496,16.8888724 C23.9583496,16.9863958 23.9278809,17.0742214 23.9033691,17.1639766 C22.511377,15.818737 18.3377441,11.8089948 15.6407227,9.46165365 C18.3466797,6.96825 22.5190918,3.10011719 23.9000488,1.81929948 C23.9275879,1.91380469 23.9583496,2.00766667 23.9583496,2.11107813 L23.9583496,16.8888724 L23.9583496,16.8888724 Z" id="Shape"></path>
                </g>
            </g>
        </g>
    </g>
</svg>