<?xml version="1.0" encoding="UTF-8"?>
<svg width="25px" height="25px" viewBox="0 0 25 25" version="1.1" xmlns="http://www.w3.org/2000/svg" xmlns:xlink="http://www.w3.org/1999/xlink">
    <!-- Generator: Sketch 60.1 (88133) - https://sketch.com -->
    <title>phone-call</title>
    <desc>Created with Sketch.</desc>
    <g id="Page-1" stroke="none" stroke-width="1" fill="none" fill-rule="evenodd">
        <g id="five-points-tax-home" transform="translate(-418.000000, -2606.000000)" fill="#FFFFFF" fill-rule="nonzero">
            <g id="Group-13" transform="translate(405.000000, 2342.000000)">
                <g id="phone-call" transform="translate(13.000000, 264.000000)">
                    <path d="M19.749789,15.4802743 C19.2381857,14.9475738 18.621097,14.6627637 17.9670886,14.6627637 C17.3183544,14.6627637 16.6959916,14.9422996 16.1632911,15.475 L14.4966245,17.1363924 C14.3594937,17.0625527 14.2223629,16.9939873 14.0905063,16.9254219 C13.9006329,16.8304852 13.721308,16.7408228 13.5683544,16.6458861 C12.007173,15.6543249 10.5883966,14.3621308 9.22763713,12.6901899 C8.56835443,11.8568565 8.12531646,11.1553797 7.8035865,10.4433544 C8.23607595,10.0477848 8.63691983,9.63639241 9.02721519,9.24082278 C9.17489451,9.09314346 9.32257384,8.94018987 9.47025316,8.79251055 C10.5778481,7.68491561 10.5778481,6.25031646 9.47025316,5.14272152 L8.03037975,3.7028481 C7.86687764,3.53934599 7.69810127,3.37056962 7.53987342,3.20179325 C7.22341772,2.87478903 6.89113924,2.53723629 6.54831224,2.22078059 C6.03670886,1.71445148 5.42489451,1.44546414 4.7814346,1.44546414 C4.13797468,1.44546414 3.51561181,1.71445148 2.98818565,2.22078059 C2.98291139,2.22605485 2.98291139,2.22605485 2.97763713,2.23132911 L1.18438819,4.04040084 C0.5092827,4.71550633 0.124261603,5.53829114 0.0398734177,6.49293249 C-0.0867088608,8.03301688 0.366877637,9.46761603 0.714978903,10.4064346 C1.56940928,12.7112869 2.84578059,14.8473629 4.74978903,17.1363924 C7.05991561,19.8948312 9.83945148,22.0731013 13.014557,23.6079114 C14.2276371,24.1828059 15.8468354,24.8631857 17.6559072,24.9792194 C17.7666667,24.9844937 17.8827004,24.9897679 17.9881857,24.9897679 C19.2065401,24.9897679 20.2297468,24.5520042 21.0314346,23.6817511 C21.0367089,23.6712025 21.0472574,23.6659283 21.0525316,23.6553797 C21.3267932,23.3231013 21.6432489,23.0224684 21.9755274,22.7007384 C22.2023207,22.4844937 22.4343882,22.2577004 22.6611814,22.0203586 C23.1833333,21.4771097 23.4575949,20.8441983 23.4575949,20.1954641 C23.4575949,19.5414557 23.1780591,18.9138186 22.6453586,18.3863924 L19.749789,15.4802743 Z M21.6379747,21.0340717 C21.6327004,21.0340717 21.6327004,21.039346 21.6379747,21.0340717 C21.4322785,21.2555907 21.221308,21.4560127 20.9945148,21.6775316 C20.6516878,22.0045359 20.3035865,22.3473629 19.9765823,22.732384 C19.4438819,23.3020042 18.8162447,23.5709916 17.9934599,23.5709916 C17.914346,23.5709916 17.8299578,23.5709916 17.7508439,23.5657173 C16.1843882,23.4655063 14.728692,22.853692 13.6369198,22.3315401 C10.6516878,20.8863924 8.03037975,18.8347046 5.8521097,16.2344937 C4.0535865,14.0667722 2.85105485,12.0625527 2.05464135,9.91065401 C1.56413502,8.59736287 1.38481013,7.57415612 1.46392405,6.60896624 C1.51666667,5.99187764 1.75400844,5.48027426 2.19177215,5.04251055 L3.99029536,3.24398734 C4.24873418,3.00137131 4.52299578,2.86951477 4.79198312,2.86951477 C5.1242616,2.86951477 5.39324895,3.06993671 5.56202532,3.23871308 C5.56729958,3.24398734 5.57257384,3.2492616 5.5778481,3.25453586 C5.89957806,3.55516878 6.20548523,3.86635021 6.52721519,4.19862869 C6.6907173,4.36740506 6.85949367,4.53618143 7.02827004,4.71023207 L8.46814346,6.15010549 C9.02721519,6.70917722 9.02721519,7.22605485 8.46814346,7.78512658 C8.31518987,7.93808017 8.16751055,8.09103376 8.01455696,8.23871308 C7.57151899,8.69229958 7.14957806,9.11424051 6.6907173,9.52563291 C6.68016878,9.53618143 6.66962025,9.5414557 6.66434599,9.55200422 C6.21075949,10.0055907 6.29514768,10.4486287 6.39008439,10.7492616 C6.39535865,10.7650844 6.40063291,10.7809072 6.40590717,10.79673 C6.78037975,11.703903 7.30780591,12.5583333 8.10949367,13.5762658 L8.11476793,13.5815401 C9.57046414,15.374789 11.1052743,16.7724684 12.7983122,17.8431435 C13.014557,17.9802743 13.2360759,18.0910338 13.4470464,18.196519 C13.6369198,18.2914557 13.8162447,18.3811181 13.9691983,18.4760549 C13.9902954,18.4866034 14.0113924,18.5024262 14.0324895,18.5129747 C14.2118143,18.6026371 14.3805907,18.6448312 14.5546414,18.6448312 C14.9924051,18.6448312 15.2666667,18.3705696 15.3563291,18.2809072 L17.1601266,16.4771097 C17.3394515,16.2977848 17.6242616,16.0815401 17.9565401,16.0815401 C18.2835443,16.0815401 18.5525316,16.2872363 18.7160338,16.4665612 C18.721308,16.4718354 18.721308,16.4718354 18.7265823,16.4771097 L21.6327004,19.3832278 C22.1759494,19.9212025 22.1759494,20.475 21.6379747,21.0340717 Z" id="Shape"></path>
                    <path d="M13.5050633,5.94440928 C14.8869198,6.17647679 16.1421941,6.83048523 17.1443038,7.83259494 C18.1464135,8.83470464 18.7951477,10.0899789 19.0324895,11.4718354 C19.0905063,11.8199367 19.3911392,12.0625527 19.7339662,12.0625527 C19.7761603,12.0625527 19.8130802,12.0572785 19.8552743,12.0520042 C20.2455696,11.9887131 20.5040084,11.6195148 20.4407173,11.2292194 C20.1559072,9.55727848 19.3647679,8.03301688 18.156962,6.82521097 C16.9491561,5.61740506 15.4248945,4.82626582 13.7529536,4.5414557 C13.3626582,4.47816456 12.9987342,4.73660338 12.9301688,5.12162447 C12.8616034,5.50664557 13.1147679,5.88111814 13.5050633,5.94440928 Z" id="Path"></path>
                    <path d="M24.9607595,11.0235232 C24.4913502,8.27035865 23.1938819,5.76508439 21.200211,3.7714135 C19.2065401,1.77774262 16.7012658,0.480274262 13.9481013,0.0108649789 C13.5630802,-0.0577004219 13.1991561,0.206012658 13.1305907,0.591033755 C13.0672996,0.981329114 13.3257384,1.34525316 13.7160338,1.41381857 C16.1738397,1.83048523 18.4154008,2.99609705 20.1981013,4.77352321 C21.9808017,6.55622363 23.1411392,8.79778481 23.5578059,11.2555907 C23.6158228,11.603692 23.9164557,11.846308 24.2592827,11.846308 C24.3014768,11.846308 24.3383966,11.8410338 24.3805907,11.8357595 C24.7656118,11.7777426 25.0293249,11.4085443 24.9607595,11.0235232 Z" id="Path"></path>
                </g>
            </g>
        </g>
    </g>
</svg>