<?xml version="1.0" encoding="UTF-8"?>
<svg width="40px" height="40px" viewBox="0 0 40 40" version="1.1" xmlns="http://www.w3.org/2000/svg" xmlns:xlink="http://www.w3.org/1999/xlink">
    <!-- Generator: Sketch 60.1 (88133) - https://sketch.com -->
    <title>quickbook</title>
    <desc>Created with Sketch.</desc>
    <g id="Page-1" stroke="none" stroke-width="1" fill="none" fill-rule="evenodd">
        <g id="five-points-tax-service" transform="translate(-941.000000, -888.000000)" fill="#03A1CF" fill-rule="nonzero">
            <g id="quickbook" transform="translate(941.000000, 888.000000)">
                <path d="M39.3333333,33.3333333 L38.6666667,33.3333333 L38.6666667,8.66666667 C38.6644626,6.82663123 37.1733688,5.33553741 35.3333333,5.33333333 L32.6666667,5.33333333 L32.6666667,2 C32.6666667,1.63181017 32.3681898,1.33333333 32,1.33333333 L30,1.33333333 L30,0.666666667 C30,0.298476833 29.7015232,0 29.3333333,0 L22.6666667,0 C21.6133653,0.00295577047 20.6239028,0.505355326 20,1.354 C19.3760972,0.505355326 18.3866347,0.00295577047 17.3333333,0 L10.6666667,0 C10.2984768,0 10,0.298476833 10,0.666666667 L10,1.33333333 L8,1.33333333 C7.63181017,1.33333333 7.33333333,1.63181017 7.33333333,2 L7.33333333,5.33333333 L4.66666667,5.33333333 C2.82663123,5.33553741 1.33553741,6.82663123 1.33333333,8.66666667 L1.33333333,33.3333333 L0.666666667,33.3333333 C0.298476833,33.3333333 0,33.6318102 0,34 L0,36.6666667 C0.00220407756,38.5067021 1.4932979,39.9977959 3.33333333,40 L36.6666667,40 C38.5067021,39.9977959 39.9977959,38.5067021 40,36.6666667 L40,34 C40,33.6318102 39.7015232,33.3333333 39.3333333,33.3333333 Z M22.6666667,1.33333333 L28.6666667,1.33333333 L28.6666667,18.6666667 L20.6666667,18.6666667 L20.6666667,3.33333333 C20.6666667,2.22876383 21.5620972,1.33333333 22.6666667,1.33333333 Z M11.3333333,1.33333333 L17.3333333,1.33333333 C18.4379028,1.33333333 19.3333333,2.22876383 19.3333333,3.33333333 L19.3333333,18.6666667 L11.3333333,18.6666667 L11.3333333,1.33333333 Z M8.66666667,2.66666667 L10,2.66666667 L10,19.3333333 C10,19.7015232 10.2984768,20 10.6666667,20 L29.3333333,20 C29.7015232,20 30,19.7015232 30,19.3333333 L30,2.66666667 L31.3333333,2.66666667 L31.3333333,21.3333333 L8.66666667,21.3333333 L8.66666667,2.66666667 Z M32,22.6666667 C32.3681898,22.6666667 32.6666667,22.3681898 32.6666667,22 L32.6666667,8.66666667 L35.3333333,8.66666667 L35.3333333,30.6666667 L4.66666667,30.6666667 L4.66666667,8.66666667 L7.33333333,8.66666667 L7.33333333,22 C7.33333333,22.3681898 7.63181017,22.6666667 8,22.6666667 L32,22.6666667 Z M2.66666667,8.66666667 C2.66666667,7.56209717 3.56209717,6.66666667 4.66666667,6.66666667 L7.33333333,6.66666667 L7.33333333,7.33333333 L4.66666667,7.33333333 C3.930287,7.33333333 3.33333333,7.930287 3.33333333,8.66666667 L3.33333333,31.3333333 C3.33333333,31.7015232 3.63181017,32 4,32 L36,32 C36.3681898,32 36.6666667,31.7015232 36.6666667,31.3333333 L36.6666667,8.66666667 C36.6666667,7.930287 36.069713,7.33333333 35.3333333,7.33333333 L32.6666667,7.33333333 L32.6666667,6.66666667 L35.3333333,6.66666667 C36.4379028,6.66666667 37.3333333,7.56209717 37.3333333,8.66666667 L37.3333333,33.3333333 L26.6666667,33.3333333 C26.2984768,33.3333333 26,33.6318102 26,34 L26,35.3333333 C26,35.7015232 25.7015232,36 25.3333333,36 L14.6666667,36 C14.2984768,36 14,35.7015232 14,35.3333333 L14,34 C14,33.6318102 13.7015232,33.3333333 13.3333333,33.3333333 L2.66666667,33.3333333 L2.66666667,8.66666667 Z M38.6666667,36.6666667 C38.6666667,37.7712362 37.7712362,38.6666667 36.6666667,38.6666667 L3.33333333,38.6666667 C2.22876383,38.6666667 1.33333333,37.7712362 1.33333333,36.6666667 L1.33333333,34.6666667 L12.6666667,34.6666667 L12.6666667,35.3333333 C12.6666667,36.4379028 13.5620972,37.3333333 14.6666667,37.3333333 L25.3333333,37.3333333 C26.4379028,37.3333333 27.3333333,36.4379028 27.3333333,35.3333333 L27.3333333,34.6666667 L38.6666667,34.6666667 L38.6666667,36.6666667 Z" id="Shape"></path>
                <polygon id="Path" points="16.6666667 33.3333333 23.3333333 33.3333333 23.3333333 34.6666667 16.6666667 34.6666667"></polygon>
                <polygon id="Path" points="4 36 5.33333333 36 5.33333333 37.3333333 4 37.3333333"></polygon>
                <polygon id="Path" points="6.66666667 36 8 36 8 37.3333333 6.66666667 37.3333333"></polygon>
                <polygon id="Path" points="9.33333333 36 10.6666667 36 10.6666667 37.3333333 9.33333333 37.3333333"></polygon>
                <polygon id="Path" points="29.3333333 36 30.6666667 36 30.6666667 37.3333333 29.3333333 37.3333333"></polygon>
                <polygon id="Path" points="32 36 33.3333333 36 33.3333333 37.3333333 32 37.3333333"></polygon>
                <polygon id="Path" points="34.6666667 36 36 36 36 37.3333333 34.6666667 37.3333333"></polygon>
                <polygon id="Path" points="12.6666667 5.33333333 18 5.33333333 18 6.66666667 12.6666667 6.66666667"></polygon>
                <polygon id="Path" points="12.6666667 2.66666667 18 2.66666667 18 4 12.6666667 4"></polygon>
                <polygon id="Path" points="12.6666667 8 18 8 18 9.33333333 12.6666667 9.33333333"></polygon>
                <polygon id="Path" points="12.6666667 10.6666667 18 10.6666667 18 12 12.6666667 12"></polygon>
                <polygon id="Path" points="12.6666667 13.3333333 18 13.3333333 18 14.6666667 12.6666667 14.6666667"></polygon>
                <polygon id="Path" points="12.6666667 16 18 16 18 17.3333333 12.6666667 17.3333333"></polygon>
                <polygon id="Path" points="24.6666667 5.33333333 27.3333333 5.33333333 27.3333333 6.66666667 24.6666667 6.66666667"></polygon>
                <polygon id="Path" points="24.6666667 2.66666667 27.3333333 2.66666667 27.3333333 4 24.6666667 4"></polygon>
                <polygon id="Path" points="24.6666667 8 27.3333333 8 27.3333333 9.33333333 24.6666667 9.33333333"></polygon>
                <polygon id="Path" points="24.6666667 10.6666667 27.3333333 10.6666667 27.3333333 12 24.6666667 12"></polygon>
                <polygon id="Path" points="22 2.66666667 23.3333333 2.66666667 23.3333333 4 22 4"></polygon>
                <polygon id="Path" points="22 5.33333333 23.3333333 5.33333333 23.3333333 6.66666667 22 6.66666667"></polygon>
                <polygon id="Path" points="22 8 23.3333333 8 23.3333333 9.33333333 22 9.33333333"></polygon>
                <polygon id="Path" points="22 10.6666667 23.3333333 10.6666667 23.3333333 12 22 12"></polygon>
                <polygon id="Path" points="24.6666667 13.3333333 27.3333333 13.3333333 27.3333333 14.6666667 24.6666667 14.6666667"></polygon>
                <polygon id="Path" points="24.6666667 16 27.3333333 16 27.3333333 17.3333333 24.6666667 17.3333333"></polygon>
                <polygon id="Path" points="22 13.3333333 23.3333333 13.3333333 23.3333333 14.6666667 22 14.6666667"></polygon>
                <polygon id="Path" points="22 16 23.3333333 16 23.3333333 17.3333333 22 17.3333333"></polygon>
                <polygon id="Path" points="32.6666667 28 34 28 34 29.3333333 32.6666667 29.3333333"></polygon>
                <polygon id="Path" points="26 28 31.3333333 28 31.3333333 29.3333333 26 29.3333333"></polygon>
            </g>
        </g>
    </g>
</svg>