<?xml version="1.0" encoding="UTF-8"?>
<svg width="25px" height="21px" viewBox="0 0 25 21" version="1.1" xmlns="http://www.w3.org/2000/svg" xmlns:xlink="http://www.w3.org/1999/xlink">
    <!-- Generator: Sketch 60.1 (88133) - https://sketch.com -->
    <title>left-quote copy</title>
    <desc>Created with Sketch.</desc>
    <g id="Page-1" stroke="none" stroke-width="1" fill="none" fill-rule="evenodd">
        <g id="five-points-tax-about" transform="translate(-1291.000000, -1502.000000)" fill="#FFFFFF" fill-rule="nonzero">
            <g id="left-quote-copy" transform="translate(1303.500000, 1512.500000) scale(-1, -1) translate(-1303.500000, -1512.500000) translate(1291.000000, 1502.000000)">
                <path d="M7.94583333,9.61953125 C7.334375,9.44348958 6.72291667,9.35416667 6.128125,9.35416667 C5.20963542,9.35416667 4.44322917,9.5640625 3.84895833,9.82109375 C4.421875,7.72369792 5.79817708,4.1046875 8.53984375,3.69713542 C8.79375,3.659375 9.00182292,3.47578125 9.07109375,3.22864583 L9.6703125,1.08541667 C9.72083333,0.904166667 9.69088542,0.71015625 9.5875,0.552864583 C9.48411458,0.395572917 9.31796875,0.290625 9.13177083,0.265104167 C8.92942708,0.2375 8.72317708,0.2234375 8.51875,0.2234375 C5.22786458,0.2234375 1.96875,3.65833333 0.593489583,8.5765625 C-0.213802083,11.4619792 -0.450520833,15.8 1.53802083,18.5304687 C2.65078125,20.0583333 4.27421875,20.8742187 6.36328125,20.9557292 C6.371875,20.9559896 6.38020833,20.95625 6.38880208,20.95625 C8.96640625,20.95625 11.2520833,19.2203125 11.9473958,16.7351562 C12.3627604,15.2494792 12.175,13.6914062 11.4182292,12.346875 C10.6695313,11.0174479 9.43645833,10.0484375 7.94583333,9.61953125 Z" id="Path"></path>
                <path d="M24.0809896,12.3471354 C23.3322917,11.0174479 22.0992188,10.0484375 20.6085938,9.61953125 C19.9971354,9.44348958 19.3856771,9.35416667 18.7911458,9.35416667 C17.8726563,9.35416667 17.1059896,9.5640625 16.5117188,9.82109375 C17.0846354,7.72369792 18.4609375,4.1046875 21.2028646,3.69713542 C21.4567708,3.659375 21.6645833,3.47578125 21.7341146,3.22864583 L22.3333333,1.08541667 C22.3838542,0.904166667 22.3539063,0.71015625 22.2505208,0.552864583 C22.1473958,0.395572917 21.98125,0.290625 21.7947917,0.265104167 C21.5927083,0.2375 21.3864583,0.2234375 21.1817708,0.2234375 C17.8908854,0.2234375 14.6317708,3.65833333 13.25625,8.5765625 C12.4492188,11.4619792 12.2125,15.8 14.2013021,18.5309896 C15.3138021,20.0585937 16.9375,20.8747396 19.0263021,20.9559896 C19.0348958,20.95625 19.0432292,20.9565104 19.0520833,20.9565104 C21.6294271,20.9565104 23.9153646,19.2205729 24.6106771,16.7354167 C25.0255208,15.2497396 24.8375,13.6914062 24.0809896,12.3471354 Z" id="Path"></path>
            </g>
        </g>
    </g>
</svg>