<?xml version="1.0" encoding="UTF-8"?>
<svg width="45px" height="42px" viewBox="0 0 45 42" version="1.1" xmlns="http://www.w3.org/2000/svg" xmlns:xlink="http://www.w3.org/1999/xlink">
    <!-- Generator: Sketch 60.1 (88133) - https://sketch.com -->
    <title>ssae</title>
    <desc>Created with Sketch.</desc>
    <g id="Page-1" stroke="none" stroke-width="1" fill="none" fill-rule="evenodd">
        <g id="five-points-tax-service" transform="translate(-557.000000, -887.000000)" fill="#03A1CF" fill-rule="nonzero" stroke="#FFFFFF">
            <g id="ssae" transform="translate(558.000000, 888.000000)">
                <path d="M13.9351592,32.632179 L6.07109315,32.632179 C5.37728198,32.632179 4.81476776,33.2001232 4.81476776,33.9008851 C4.81476776,34.6013166 5.37728198,35.1695913 6.07109315,35.1695913 L13.9351592,35.1695913 C14.6289704,35.1695913 15.1911571,34.6013166 15.1911571,33.9008851 C15.1911571,33.2001232 14.6289704,32.632179 13.9351592,32.632179 Z" id="Path"></path>
                <path d="M6.07109315,31.3790013 L10.0031262,31.3790013 C10.6966099,31.3790013 11.2591241,30.8110571 11.2591241,30.1102952 C11.2591241,29.4095333 10.6966099,28.841589 10.0031262,28.841589 L6.07109315,28.841589 C5.37728198,28.841589 4.81476776,29.4095333 4.81476776,30.1102952 C4.81476776,30.8110571 5.37728198,31.3790013 6.07109315,31.3790013 Z" id="Path"></path>
                <path d="M38.6884026,8.15408004 L26.2636496,8.15408004 L22.5228321,2.07585435 C21.7389793,0.802522686 20.3840995,0.0422902044 18.8979226,0.0422902044 L12.4813973,0.0422902044 C10.128857,0.0422902044 8.21473706,1.97277198 8.21473706,4.3453185 L8.21473706,4.94795392 L4.26666027,4.94795392 C1.91411989,4.94795392 0,6.87843569 0,9.25098222 L0,35.680708 C0,38.0327702 1.89643896,39.9460716 4.22769681,39.9460716 L30.4353569,39.9460716 C32.7875699,39.9460716 34.7013624,38.0132771 34.7013624,35.6374266 L34.7013624,35.0404079 L38.6500941,35.0404079 C41.002307,35.0404079 42.9160994,33.1076134 42.9160994,30.7317629 L42.9160994,12.4194437 C42.9160994,10.0673814 41.0196605,8.15408004 38.6884026,8.15408004 Z M12.4813973,2.57970247 L18.8979226,2.57970247 C19.5095503,2.57970247 20.0671532,2.89225347 20.3893383,3.41559475 L23.3053751,8.15408004 L15.0297372,8.15408004 L14.308095,6.98151806 C13.5321005,5.72074135 12.1958837,4.96282155 10.7270603,4.94828429 L10.7270603,4.3453185 C10.7270603,3.3716526 11.5138598,2.57970247 12.4813973,2.57970247 Z M2.51232321,9.25098222 C2.51232321,8.27731632 3.29912276,7.48536618 4.26666027,7.48536618 L10.6831855,7.48536618 C11.2948133,7.48536618 11.8524161,7.79791718 12.1746012,8.32125846 L15.090638,13.0597438 L2.51232321,13.0597438 L2.51232321,9.25098222 Z M32.1890392,35.6374266 C32.1890392,36.614066 31.4022396,37.4086593 30.4353569,37.4086593 L4.22769681,37.4086593 C3.28176931,37.4086593 2.51232321,36.6335592 2.51232321,35.680708 L2.51232321,15.597156 L30.4736656,15.597156 C31.4195931,15.597156 32.1890392,16.3722561 32.1890392,17.3251074 L32.1890392,35.6374266 Z M40.4037762,30.7317629 C40.4037762,31.7084023 39.6173041,32.5029956 38.6500941,32.5029956 L34.7013624,32.5029956 L34.7013624,17.3251074 C34.7013624,14.9730451 32.8049234,13.0597438 30.4736656,13.0597438 L18.0489126,13.0597438 L16.591549,10.6914923 L38.6884026,10.6914923 C39.6343301,10.6914923 40.4037762,11.4665924 40.4037762,12.4194437 L40.4037762,30.7317629 Z" id="Shape"></path>
            </g>
        </g>
    </g>
</svg>