<?xml version="1.0" encoding="UTF-8"?>
<svg width="40px" height="40px" viewBox="0 0 40 40" version="1.1" xmlns="http://www.w3.org/2000/svg" xmlns:xlink="http://www.w3.org/1999/xlink">
    <!-- Generator: Sketch 60.1 (88133) - https://sketch.com -->
    <title>tax-planning</title>
    <desc>Created with Sketch.</desc>
    <g id="Page-1" stroke="none" stroke-width="1" fill="none" fill-rule="evenodd">
        <g id="five-points-tax-service" transform="translate(-561.000000, -714.000000)" fill="#03A1CF" fill-rule="nonzero">
            <g id="tax-planning" transform="translate(561.000000, 714.000000)">
                <path d="M8.83765625,12.7032812 L4.49414063,12.7032812 C4.20664063,12.7032812 4.07320313,13.0113281 4.07320313,13.2989844 C4.07320313,13.6275 4.2271875,13.9048437 4.49414063,13.9048437 L6.00359375,13.9048437 L6.00359375,19.7885156 C6.00359375,20.0658594 6.3321875,20.2095313 6.67101563,20.2095313 C6.99960938,20.2095313 7.3384375,20.0657813 7.3384375,19.7885156 L7.3384375,13.9048437 L8.83757813,13.9048437 C9.39296875,13.9046875 9.40445312,12.7032812 8.83765625,12.7032812 Z" id="Path"></path>
                <path d="M12.585625,13.0938281 C12.4933594,12.7857812 12.1134375,12.6419531 11.7232812,12.6419531 C11.3432812,12.6419531 10.9633594,12.7857813 10.8710938,13.0938281 C8.84203125,19.7221094 8.86889713,19.5851563 8.86889713,19.6548437 C8.86889713,20.154375 10.0265625,20.4566406 10.1628125,19.9425781 L10.5529687,18.5767187 L12.9039063,18.5767187 L13.2948438,19.9425781 C13.3457031,20.1372656 13.52,20.2091406 13.7459375,20.2091406 C14.1055469,20.2091406 14.5879687,19.9730469 14.5879687,19.6548437 C14.5879687,19.624375 14.5778125,19.5930469 14.5676563,19.5524219 L12.585625,13.0938281 Z M10.8296875,17.5290625 L11.7232812,14.3767969 L12.616875,17.5290625 L10.8296875,17.5290625 Z" id="Shape"></path>
                <path d="M14.814375,19.5933594 C14.814375,19.9630469 15.3278125,20.2607813 15.6871875,20.2607813 C15.8515625,20.2607813 15.985,20.1683594 16.056875,20.0451563 L17.5560156,17.40625 L19.0654687,20.0451563 C19.1271094,20.1684375 19.2605469,20.2607813 19.4248437,20.2607813 C19.8541406,20.2607813 20.5071875,19.8533594 20.2257031,19.3469531 L18.4492969,16.45125 L20.1642187,13.5658594 C20.2257812,13.4632031 20.2566406,13.3707813 20.2566406,13.2783594 C20.2566406,12.9189844 19.7842969,12.6520313 19.404375,12.6520313 C18.9223437,12.6520313 18.9688281,13.0296094 17.5560156,15.4552344 L16.1595312,12.9395313 C16.0671094,12.7649219 15.9233594,12.6520313 15.7179687,12.6520313 C15.338125,12.6520313 14.8657031,12.9189062 14.8657031,13.2783594 C14.8657031,13.3707813 14.8965625,13.4632031 14.9582031,13.5658594 L16.6729687,16.45125 L14.8965625,19.3469531 C14.8452344,19.4392969 14.814375,19.5214844 14.814375,19.5933594 Z" id="Path"></path>
                <path d="M39.1703906,16.1811719 C37.9085156,14.6292969 35.6396875,14.4517969 34.1628906,15.6690625 L28.4485937,20.3177344 L28.4485937,3.701875 C28.4485937,1.69570312 26.8169531,0.0640625 24.8107812,0.0640625 L7.79390625,0.0640625 C5.78851563,0.0640625 4.156875,1.69570312 4.156875,3.701875 L4.156875,5.07164062 L3.65882812,5.07164062 C1.64179688,5.07164062 0,6.71265625 0,8.7296875 L0,30.3460937 C0,30.6916406 0.280703125,30.9715625 0.62546875,30.9715625 C0.971015625,30.9715625 1.2509375,30.6916406 1.2509375,30.3460937 L1.2509375,8.7296875 C1.2509375,7.4021875 2.33140625,6.3225 3.65890625,6.3225 C4.08453125,6.3225 5.19851562,6.3225 5.32960938,6.3225 L17.2046094,6.3225 C17.4383594,6.3225 17.6721094,6.35765625 17.8964844,6.42492187 L17.8964844,11.2213281 C17.8964844,11.566875 18.1764062,11.8467969 18.5219531,11.8467969 L23.0463281,11.8467969 C23.1785156,12.363125 23.0950781,11.7549219 23.1198437,25.8874219 L19.2678125,29.0209375 L9.39898437,29.0209375 C9.0753125,29.0209375 8.81265625,29.2835937 8.81265625,29.6072656 C8.81265625,29.9309375 9.0753125,30.1935937 9.39898437,30.1935937 L17.8339844,30.1935937 C16.9774219,30.9842969 16.7678906,32.236875 17.2640625,33.2465625 L16.5189844,33.8525 C16.3274219,34.0088281 16.0850781,34.0948437 15.8372656,34.0948437 L5.1896875,34.0948437 C4.86601563,34.0948437 4.60335938,34.3575 4.60335938,34.6811719 C4.60335938,35.0048437 4.86601563,35.2675 5.1896875,35.2675 L15.8371875,35.2675 C16.3539844,35.2675 16.8582031,35.0884375 17.2592969,34.7624219 L18.004375,34.1564844 C18.9269531,34.8794531 20.2760156,34.9051562 21.23875,34.1197656 L23.1197656,32.5897656 C23.1197656,32.8319531 23.1197656,33.9455469 23.1197656,35.9320312 C23.1197656,37.2595312 22.0392969,38.3392187 20.7117969,38.3392187 L3.65890625,38.3392187 C2.33140625,38.3392187 1.2509375,37.2595312 1.2509375,35.9320312 L1.2509375,32.6914062 C1.2509375,32.3458594 0.971015625,32.0659375 0.62546875,32.0659375 C0.280703125,32.0659375 0,32.3458594 0,32.6914062 L0,35.9320312 C0,37.9491406 1.64179688,39.5901562 3.65890625,39.5901562 L20.7117969,39.5901562 C22.7296875,39.5901562 24.3707031,37.9491406 24.3707031,35.9320312 L24.3707031,34.1604687 L24.8108594,34.1604687 C26.8170312,34.1604687 28.4486719,32.5288281 28.4486719,30.5226562 L28.4486719,28.2553906 L28.4494531,28.2546094 C28.975625,28.5384375 29.655,28.5071094 30.1655469,28.0928125 L38.1557031,21.5928125 C38.220625,21.7523437 38.251875,21.9211719 38.251875,22.0900781 C38.251875,22.4763281 38.0845313,22.859375 37.7624219,23.1221094 L32.4960938,27.4057031 C32.244375,27.6105469 32.2067969,27.9795312 32.4108594,28.2313281 C32.6149219,28.4814844 32.9839063,28.520625 33.2357031,28.3157812 L38.5020313,24.0314844 C39.4808594,23.235625 39.6997656,21.8471094 39.0641406,20.7963281 C40.2086719,19.5164062 40.2876563,17.5540625 39.1703906,16.1811719 Z M19.1474219,10.5959375 L19.1474219,7.28257812 C21.7221094,10.005 22.2057812,10.5164844 22.2728906,10.5874219 C22.2728125,10.5873438 22.2726562,10.5871875 22.2725781,10.5871094 C22.2740625,10.5886719 22.2757031,10.5903906 22.2774219,10.5922656 C22.2771875,10.5920313 22.2770312,10.5917969 22.2767969,10.5915625 C22.2785937,10.5935156 22.2800781,10.595 22.2809375,10.5959375 L19.1474219,10.5959375 L19.1474219,10.5959375 Z M21.5021875,7.96976562 C20.0009375,6.41265625 19.6270312,5.79226562 18.7596094,5.4203125 C18.2772656,5.19125 17.7409375,5.07164062 17.2046094,5.07164062 L5.32960938,5.07164062 L5.32960938,3.701875 C5.32960938,2.34304688 6.43507813,1.23679688 7.79390625,1.23679688 L24.8108594,1.23679688 C26.1704688,1.23679688 27.2759375,2.34304688 27.2759375,3.701875 L27.2759375,21.2723437 L25.6755469,22.5740625 C25.1751563,22.980625 24.9953906,23.6373437 25.168125,24.2205469 L24.3707031,24.8694531 C24.2584375,12.43 24.61875,12.1775781 24.0626563,10.9719531 C23.6465625,10.01875 23.1144531,9.7303125 21.5021875,7.96976562 Z M20.4991406,33.2098437 C19.5125,34.0135156 18.0520312,33.21375 18.17875,31.9573437 C18.2632031,31.1379687 18.9246094,30.8682812 19.2185938,30.5727344 C19.6704687,31.1285938 20.5703125,32.2348437 21.0191406,32.7867969 C21.0104688,32.7939062 20.4991406,33.2098437 20.4991406,33.2098437 Z M27.2759375,30.5228125 C27.2759375,31.8824219 26.1704688,32.9878906 24.8108594,32.9878906 L24.3707031,32.9878906 L24.3707031,31.5728125 L27.2759375,29.209375 L27.2759375,30.5228125 Z M21.9290625,32.0465625 C21.4803125,31.4946094 20.5796875,30.3883594 20.1277344,29.8332813 C20.4065625,29.6064844 25.2753125,25.6455469 25.8169531,25.2049219 C25.8191406,25.2075781 25.8210156,25.2099219 25.8229688,25.2122656 C25.82375,25.2132031 25.8246094,25.2142969 25.825625,25.2155469 C25.8335937,25.2253125 25.83875,25.2317188 25.8420313,25.2357031 C25.841875,25.2354688 25.8417187,25.2353125 25.8415625,25.2350781 C25.93125,25.3452344 26.3046875,25.8041406 27.6182813,27.4182031 C27.6101563,27.4249219 22.1753906,31.846875 21.9290625,32.0465625 Z M29.1483594,27.2657031 C28.9582812,27.2469531 29.1513281,27.4479688 26.3611719,24.0149219 C26.2298437,23.853125 26.2540625,23.6146094 26.4159375,23.4832812 L26.9108594,23.080625 C26.9114844,23.0814062 26.9125,23.0826562 26.9139062,23.084375 C26.9133594,23.0836719 26.9128125,23.0830469 26.9123437,23.0825 C26.913125,23.0834375 26.9138281,23.0842969 26.9145312,23.0851562 C26.914375,23.085 26.9142187,23.0848437 26.9141406,23.0846094 C26.9146094,23.0851562 26.915,23.0857031 26.915625,23.0864062 C26.9164062,23.0874219 26.9171875,23.0883594 26.9178906,23.0892188 C26.9175781,23.0888281 26.9172656,23.0884375 26.916875,23.0880469 C26.9186719,23.0903125 26.9209375,23.0929687 26.9235937,23.0963281 C26.9240625,23.0969531 26.9244531,23.0974219 26.9248438,23.0978906 C26.9250781,23.098125 26.9253125,23.0984375 26.9254688,23.0986719 C26.9253906,23.0985937 26.9253125,23.0985156 26.9252344,23.0983594 C26.9253906,23.0985156 26.9255469,23.09875 26.9257031,23.0989062 C26.925625,23.0988281 26.9255469,23.09875 26.9254688,23.0986719 C26.9273437,23.1009375 26.928125,23.1019531 26.9280469,23.1017969 C27.020625,23.2155469 27.5358594,23.8488281 29.9207813,26.7800781 C29.4845312,27.1015625 29.3977344,27.2907813 29.1483594,27.2657031 Z M30.8307813,26.0398437 C30.5285938,25.6685156 28.1142188,22.7008594 27.8207813,22.3403125 C34.7623437,16.6927344 34.3444531,17.0327344 34.4513281,16.9457812 L37.4613281,20.6453125 L30.8307813,26.0398437 Z M38.3245312,19.8486719 L35.4075781,16.2632813 C35.7257812,16.1147656 36.0682031,16.0420313 36.4090625,16.0420313 C38.3753125,16.0420313 39.4885938,18.2835156 38.3245312,19.8486719 Z" id="Shape"></path>
                <path d="M33.5061719,18.5719531 L29.6049219,21.7453125 C29.3532031,21.9501563 29.315625,22.3191406 29.5196875,22.5709375 C29.72375,22.8210938 30.0927344,22.8602344 30.3445312,22.6553906 L34.2465625,19.48125 C34.4975,19.2771875 34.5358594,18.9074219 34.3310156,18.6564063 C34.1269531,18.4054688 33.7578906,18.3671094 33.5061719,18.5719531 Z" id="Path"></path>
                <path d="M17.9332031,24.4817187 C17.6095312,24.4817187 17.346875,24.744375 17.346875,25.0680469 C17.346875,25.3917187 17.6095312,25.654375 17.9332031,25.654375 L19.4061719,25.654375 C19.7298438,25.654375 19.9925,25.3917187 19.9925,25.0680469 C19.9925,24.744375 19.7298438,24.4817187 19.4061719,24.4817187 L17.9332031,24.4817187 Z" id="Path"></path>
                <path d="M4.60328125,25.0680469 C4.60328125,25.3917187 4.8659375,25.654375 5.18960937,25.654375 L15.5877344,25.654375 C15.9114063,25.654375 16.1740625,25.3917187 16.1740625,25.0680469 C16.1740625,24.744375 15.9114063,24.4817187 15.5877344,24.4817187 L5.1896875,24.4817187 C4.86601563,24.4817187 4.60328125,24.744375 4.60328125,25.0680469 Z" id="Path"></path>
                <path d="M5.1896875,29.0209375 C4.86601563,29.0209375 4.60335938,29.2835938 4.60335938,29.6072656 C4.60335938,29.9309375 4.86601563,30.1935937 5.1896875,30.1935937 L7.05351562,30.1935937 C7.3771875,30.1935937 7.63984375,29.9309375 7.63984375,29.6072656 C7.63984375,29.2835938 7.3771875,29.0209375 7.05351562,29.0209375 L5.1896875,29.0209375 Z" id="Path"></path>
            </g>
        </g>
    </g>
</svg>